G04*
G04 #@! TF.GenerationSoftware,Altium Limited,Altium Designer,23.2.1 (34)*
G04*
G04 Layer_Color=8421504*
%FSLAX44Y44*%
%MOMM*%
G71*
G04*
G04 #@! TF.SameCoordinates,EE327AA5-93BD-4133-A13B-4ECCBC3E436C*
G04*
G04*
G04 #@! TF.FilePolarity,Positive*
G04*
G01*
G75*
G04:AMPARAMS|DCode=19|XSize=1.6552mm|YSize=0.2525mm|CornerRadius=0mm|HoleSize=0mm|Usage=FLASHONLY|Rotation=315.000|XOffset=0mm|YOffset=0mm|HoleType=Round|Shape=Rectangle|*
%AMROTATEDRECTD19*
4,1,4,-0.6745,0.4960,-0.4960,0.6745,0.6745,-0.4960,0.4960,-0.6745,-0.6745,0.4960,0.0*
%
%ADD19ROTATEDRECTD19*%

G04:AMPARAMS|DCode=20|XSize=1.6552mm|YSize=0.2525mm|CornerRadius=0.1262mm|HoleSize=0mm|Usage=FLASHONLY|Rotation=315.000|XOffset=0mm|YOffset=0mm|HoleType=Round|Shape=RoundedRectangle|*
%AMROUNDEDRECTD20*
21,1,1.6552,0.0000,0,0,315.0*
21,1,1.4028,0.2525,0,0,315.0*
1,1,0.2525,0.4960,-0.4960*
1,1,0.2525,-0.4960,0.4960*
1,1,0.2525,-0.4960,0.4960*
1,1,0.2525,0.4960,-0.4960*
%
%ADD20ROUNDEDRECTD20*%
G04:AMPARAMS|DCode=21|XSize=0.2525mm|YSize=1.6552mm|CornerRadius=0.1262mm|HoleSize=0mm|Usage=FLASHONLY|Rotation=315.000|XOffset=0mm|YOffset=0mm|HoleType=Round|Shape=RoundedRectangle|*
%AMROUNDEDRECTD21*
21,1,0.2525,1.4028,0,0,315.0*
21,1,0.0000,1.6552,0,0,315.0*
1,1,0.2525,-0.4960,-0.4960*
1,1,0.2525,-0.4960,-0.4960*
1,1,0.2525,0.4960,0.4960*
1,1,0.2525,0.4960,0.4960*
%
%ADD21ROUNDEDRECTD21*%
%ADD22O,1.4000X0.2800*%
%ADD23R,1.5500X1.2500*%
G04:AMPARAMS|DCode=24|XSize=1.55mm|YSize=1.25mm|CornerRadius=0mm|HoleSize=0mm|Usage=FLASHONLY|Rotation=225.000|XOffset=0mm|YOffset=0mm|HoleType=Round|Shape=Rectangle|*
%AMROTATEDRECTD24*
4,1,4,0.1061,0.9900,0.9900,0.1061,-0.1061,-0.9900,-0.9900,-0.1061,0.1061,0.9900,0.0*
%
%ADD24ROTATEDRECTD24*%

%ADD25R,1.2500X1.5500*%
%ADD26R,1.2200X0.9100*%
%ADD27R,1.1000X2.8000*%
%ADD28O,0.7620X0.5080*%
%ADD29C,0.2540*%
%ADD30R,1.7800X3.4300*%
%ADD31R,1.4000X1.0000*%
%ADD32R,0.6625X0.9575*%
G04:AMPARAMS|DCode=33|XSize=0.9575mm|YSize=0.6625mm|CornerRadius=0.3312mm|HoleSize=0mm|Usage=FLASHONLY|Rotation=270.000|XOffset=0mm|YOffset=0mm|HoleType=Round|Shape=RoundedRectangle|*
%AMROUNDEDRECTD33*
21,1,0.9575,0.0000,0,0,270.0*
21,1,0.2950,0.6625,0,0,270.0*
1,1,0.6625,0.0000,-0.1475*
1,1,0.6625,0.0000,0.1475*
1,1,0.6625,0.0000,0.1475*
1,1,0.6625,0.0000,-0.1475*
%
%ADD33ROUNDEDRECTD33*%
%ADD34R,2.1000X1.8000*%
%ADD35R,2.8000X1.1000*%
%ADD36R,1.4000X4.2000*%
%ADD37R,2.5500X0.9500*%
%ADD38R,6.6000X5.6000*%
%ADD39R,1.7800X4.2700*%
D19*
X462339Y310247D02*
D03*
D20*
X458803Y306712D02*
D03*
X455268Y303176D02*
D03*
X451732Y299641D02*
D03*
X448196Y296105D02*
D03*
X444661Y292570D02*
D03*
X441125Y289034D02*
D03*
X437590Y285499D02*
D03*
X434054Y281963D02*
D03*
X430519Y278428D02*
D03*
X426983Y274892D02*
D03*
X423448Y271357D02*
D03*
X481791Y213013D02*
D03*
X485326Y216549D02*
D03*
X488862Y220085D02*
D03*
X492397Y223620D02*
D03*
X495933Y227156D02*
D03*
X499469Y230691D02*
D03*
X503004Y234227D02*
D03*
X506540Y237762D02*
D03*
X510075Y241298D02*
D03*
X513611Y244833D02*
D03*
X517146Y248369D02*
D03*
X520682Y251904D02*
D03*
D21*
X423448D02*
D03*
X426983Y248369D02*
D03*
X430519Y244833D02*
D03*
X434054Y241298D02*
D03*
X437590Y237762D02*
D03*
X441125Y234227D02*
D03*
X444661Y230691D02*
D03*
X448196Y227156D02*
D03*
X451732Y223620D02*
D03*
X455268Y220085D02*
D03*
X458803Y216549D02*
D03*
X462339Y213013D02*
D03*
X520682Y271357D02*
D03*
X517146Y274892D02*
D03*
X513611Y278428D02*
D03*
X510075Y281963D02*
D03*
X506540Y285499D02*
D03*
X503004Y289034D02*
D03*
X499469Y292570D02*
D03*
X495933Y296105D02*
D03*
X492397Y299641D02*
D03*
X488862Y303176D02*
D03*
X485326Y306712D02*
D03*
X481791Y310247D02*
D03*
D22*
X978588Y396904D02*
D03*
Y403404D02*
D03*
Y416404D02*
D03*
X937588Y396904D02*
D03*
Y403404D02*
D03*
Y409904D02*
D03*
Y416404D02*
D03*
X978588Y409904D02*
D03*
D23*
X719836Y114120D02*
D03*
Y134620D02*
D03*
X404622Y215228D02*
D03*
Y194728D02*
D03*
X230378Y146214D02*
D03*
Y166714D02*
D03*
X256286Y146214D02*
D03*
Y166714D02*
D03*
X934212Y463386D02*
D03*
Y442886D02*
D03*
X1046480Y487770D02*
D03*
Y467270D02*
D03*
X931926Y346620D02*
D03*
Y367120D02*
D03*
X737171Y526915D02*
D03*
Y506415D02*
D03*
X737680Y571365D02*
D03*
Y550865D02*
D03*
X1072896Y487770D02*
D03*
Y467270D02*
D03*
X903177Y439311D02*
D03*
Y459811D02*
D03*
X1020572Y414872D02*
D03*
Y394372D02*
D03*
X903177Y416631D02*
D03*
Y396131D02*
D03*
X877015Y391395D02*
D03*
Y370895D02*
D03*
X960374Y463386D02*
D03*
Y442886D02*
D03*
D24*
X533790Y170298D02*
D03*
X519294Y184794D02*
D03*
X557666Y331080D02*
D03*
X543170Y345576D02*
D03*
X552332Y188840D02*
D03*
X537836Y203336D02*
D03*
D25*
X966052Y106680D02*
D03*
X945552D02*
D03*
X966052Y158750D02*
D03*
X945552D02*
D03*
X966052Y184912D02*
D03*
X945552D02*
D03*
X966052Y80518D02*
D03*
X945552D02*
D03*
X966052Y132842D02*
D03*
X945552D02*
D03*
X966052Y211074D02*
D03*
X945552D02*
D03*
X895483Y346691D02*
D03*
X874983D02*
D03*
X1109816Y395224D02*
D03*
X1089316D02*
D03*
X323316Y407699D02*
D03*
X343815D02*
D03*
X301143D02*
D03*
X280644D02*
D03*
X882232Y576798D02*
D03*
X861732D02*
D03*
X1088390Y442976D02*
D03*
X1108890D02*
D03*
X1044866Y416814D02*
D03*
X1065366D02*
D03*
X1065837Y364998D02*
D03*
X1045337D02*
D03*
X1045972Y390652D02*
D03*
X1066472D02*
D03*
X1065874Y442976D02*
D03*
X1045374D02*
D03*
X905420Y576798D02*
D03*
X925920D02*
D03*
X830998Y610834D02*
D03*
X851498D02*
D03*
X848434Y781012D02*
D03*
X868934D02*
D03*
D26*
X742442Y140720D02*
D03*
Y108020D02*
D03*
X116903Y430211D02*
D03*
Y462911D02*
D03*
D27*
X618744Y360172D02*
D03*
Y326963D02*
D03*
X982472Y320707D02*
D03*
Y353917D02*
D03*
D28*
X566166Y404622D02*
D03*
Y393954D02*
D03*
D29*
X874474Y326717D02*
D03*
Y315795D02*
D03*
X1093724Y335788D02*
D03*
Y324866D02*
D03*
D30*
X852932Y366522D02*
D03*
X1093216Y358648D02*
D03*
D31*
X132573Y398555D02*
D03*
X154574Y408055D02*
D03*
Y389055D02*
D03*
X875206Y613120D02*
D03*
X897206Y622620D02*
D03*
Y603620D02*
D03*
X841170Y658078D02*
D03*
X863170Y667578D02*
D03*
Y648578D02*
D03*
X883080Y658114D02*
D03*
X905080Y667614D02*
D03*
Y648614D02*
D03*
D32*
X764604Y531653D02*
D03*
D33*
Y499646D02*
D03*
D34*
X475562Y702239D02*
D03*
Y753239D02*
D03*
X381562D02*
D03*
Y702239D02*
D03*
X476832Y598099D02*
D03*
Y649099D02*
D03*
X382832D02*
D03*
Y598099D02*
D03*
D35*
X623085Y509045D02*
D03*
X656294D02*
D03*
D36*
X530162Y554671D02*
D03*
Y489327D02*
D03*
D37*
X847950Y751488D02*
D03*
Y705888D02*
D03*
D38*
X914950Y728689D02*
D03*
D39*
X996950Y631698D02*
D03*
X1022350D02*
D03*
Y737798D02*
D03*
X996950D02*
D03*
M02*
