M48
;Layer_Color=9474304
;FILE_FORMAT=4:4
METRIC,LZ
;TYPE=PLATED
T1F00S00C0.5080
T2F00S00C0.7112
T3F00S00C0.9000
T4F00S00C1.0800
T5F00S00C1.1000
T6F00S00C1.2700
T7F00S00C1.3000
T8F00S00C1.4000
T9F00S00C3.5000
%
T01
X00404368Y0022987
X00466494Y00246768
X00457255Y00256252
X00447779Y00269263
X0046609Y00279146
X00476498Y00237652
X00458978Y00353187
X00449072Y00346456
X00439928Y00338074
X00730504Y00314826
X00734726Y00302283
X007307Y00288549
X00787908Y00286004
X0078232Y00209804
X00742188Y001651
X00760476Y00105156
X00562356Y00139954
X00799592Y00191008
X0087442Y00305308
X00999236Y00371094
X01028192Y00379984
X01065276Y00348234
X01093623Y00315214
X0109093Y00461518
X01095756Y00480568
X00983234Y00459994
X0083947Y00577814
X00362775Y00407191
T02
X00239522Y00372364
X00403606Y00169672
X00567436Y00169926
X006223Y00533654
T03
X00205232Y00192532
X00230632
X00256032
X00281432
X00894588Y00198374
Y00172974
Y00147574
Y00122174
Y00096774
T04
X00630291Y00436401
X00655292
X00681291
T05
X00302514Y00044704
Y00070104
X00327914
Y00044704
X00353314
Y00070104
X00378714
Y00044704
X00404114
Y00070104
X00429514
Y00044704
X00454914
Y00070104
X00480314
Y00044704
X00505714
Y00070104
X00531114
Y00044704
X00556514
Y00070104
X00581914
Y00044704
X00607314
Y00070104
X00632714
Y00044704
X00658114
Y00070104
X00786384Y0009652
Y0012192
Y0014732
X00811784
Y0012192
Y0009652
T06
X00810006Y0072263
X00998992Y00787908
X00509016Y00700786
X00354902Y00675923
X00341948Y00752631
X0033763Y00598453
X01022096Y00813562
T07
X0109728Y00585216
Y00635216
X01097534Y0070946
Y0075946
X0008382Y00783336
Y00733336
X00082804Y00665442
Y00615442
T08
X00648271Y00674399
Y00775999
X00239402Y00702847
Y00652447
Y00602047
X00164401
Y00652447
Y00702847
Y00449447
X00239402
T09
X0005Y0005
X011
X0005Y0085
X011
M30
